PathFileType	4	(X/Y/Z)	/Users/itak/Documents/Research/Walk-IL/dataset/trc/00205_00008.trc
DataRate	CameraRate	NumFrames	NumMarkers	Units	OrigDataRate	OrigDataStartFrame	OrigNumFrames
100.000000	100.000000	4	53	mm	100.000000	315	505
Frame#	Time	RPSI			LPSI			L3			STRN			T10			C7			CLAV			RBAK			LBAK			LSHO			LUPA			LAEL			LAOL			LWTS			LWPS			LFRA			LIFD			LHPS			LHTS			RSHO			RUPA			RAEL			RAOL			RWTS			RWPS			RFRA			RIFD			RHTS			RHPS			RBHD			LFHD			RFHD			LBHD			LHIP			RHIP			RASI			LASI			LKNE			LTHI			LANK			LTIP			LTOE			LMT1			LMT5			LHEE			RKNE			RTHI			RANK			RTIP			RTOE			RMT1			RMT5			RHEE			
		X1	Y1	Z1	X2	Y2	Z2	X3	Y3	Z3	X4	Y4	Z4	X5	Y5	Z5	X6	Y6	Z6	X7	Y7	Z7	X8	Y8	Z8	X9	Y9	Z9	X10	Y10	Z10	X11	Y11	Z11	X12	Y12	Z12	X13	Y13	Z13	X14	Y14	Z14	X15	Y15	Z15	X16	Y16	Z16	X17	Y17	Z17	X18	Y18	Z18	X19	Y19	Z19	X20	Y20	Z20	X21	Y21	Z21	X22	Y22	Z22	X23	Y23	Z23	X24	Y24	Z24	X25	Y25	Z25	X26	Y26	Z26	X27	Y27	Z27	X28	Y28	Z28	X29	Y29	Z29	X30	Y30	Z30	X31	Y31	Z31	X32	Y32	Z32	X33	Y33	Z33	X34	Y34	Z34	X35	Y35	Z35	X36	Y36	Z36	X37	Y37	Z37	X38	Y38	Z38	X39	Y39	Z39	X40	Y40	Z40	X41	Y41	Z41	X42	Y42	Z42	X43	Y43	Z43	X44	Y44	Z44	X45	Y45	Z45	X46	Y46	Z46	X47	Y47	Z47	X48	Y48	Z48	X49	Y49	Z49	X50	Y50	Z50	X51	Y51	Z51	X52	Y52	Z52	X53	Y53	Z53	

316	3.15	-19.02609443664551	1045.517700195312	161.1263122558594	83.89606475830078	1050.542846679688	93.01764678955078	28.06496047973633	1084.742797851562	129.0344085693359	165.2459411621094	1308.74169921875	342.5393676757812	1.782186627388	1240.485229492188	94.14150238037109	35.07877349853516	1512.53515625	138.3399810791016	150.2685089111328	1421.367797851562	311.2980346679688	-84.18831634521484	1331.687744140625	146.6826934814453	115.361083984375	1492.022583007812	77.04507446289062	223.598876953125	1485.875366210938	94.83206939697266	264.9107666015625	1354.2841796875	23.71623420715332	274.6500244140625	1136.156127929688	23.00397682189941	188.0250244140625	1124.403076171875	41.63179397583008	321.11669921875	895.1925048828125	107.3293991088867	286.9957275390625	882.2156372070312	21.32961082458496	288.8873596191406	1026.458862304688	16.66024780273438	293.9913635253906	710.0187377929688	122.5108261108398	292.479248046875	810.578369140625	33.98574447631836	334.7958374023438	813.4447631835938	94.03562927246094	-78.46746063232422	1491.981201171875	292.1041564941406	-143.9672698974609	1422.546997070312	313.1087646484375	-186.0755767822266	1130.709838867188	343.0650024414062	-103.2004699707031	1125.524169921875	289.2601318359375	-60.89263916015625	940.1974487304688	484.2467956542969	-135.2062072753906	902.8385620117188	449.418212890625	-178.4511413574219	1061.631958007812	383.6575012207031	2.004493236541748	763.9837036132812	514.7722778320312	-38.51552581787109	856.7064819335938	527.277587890625	-103.5945510864258	830.3787231445312	486.697265625	-1.145317316055298	1672.409912109375	218.3236846923828	186.1010589599609	1734.953125	307.0191650390625	73.80882263183594	1725.125610351562	367.9335327148438	113.9443969726562	1690.057250976562	148.0783386230469	244.8379211425781	997.0624389648438	111.4328918457031	-31.93175506591797	1003.60888671875	360.1984558105469	56.14728927612305	1037.428100585938	397.9838256835938	263.89111328125	1042.12060546875	245.8703765869141	354.3163757324219	508.1159057617188	220.8290710449219	337.8076171875	653.339599609375	189.8294372558594	128.8753967285156	173.9909362792969	-54.58589553833008	259.2794799804688	341.9483642578125	84.15653991699219	231.3724822998047	64.46453857421875	95.97852325439453	168.5464172363281	85.92908477783203	97.1658935546875	210.9459838867188	105.9779815673828	-19.83174514770508	53.94883728027344	209.5788116455078	-37.1887321472168	74.71408081054688	505.9273681640625	353.8336486816406	23.70856094360352	772.9984130859375	411.9984436035156	92.35041809082031	33.34083557128906	233.4252777099609	108.8553085327148	387.3170471191406	344.008544921875	216.9312286376953	43.24196624755859	422.6099548339844	235.4493865966797	44.49663925170898	354.41845703125	107.1596603393555	36.73791122436523	350.8981018066406	134.9746398925781	32.5268440246582	160.4724578857422	
317	3.16	-14.22293567657471	1045.838745117188	166.3623657226562	89.92523956298828	1050.733642578125	99.74629974365234	33.53527069091797	1084.94140625	135.2056732177734	168.3822326660156	1308.965698242188	350.2665405273438	7.43523645401001	1240.67236328125	100.3707733154297	40.38922119140625	1512.716674804688	144.7182006835938	153.9246673583984	1421.5859375	318.7626953125	-79.08233642578125	1331.975830078125	152.0707397460938	121.1133880615234	1492.038208007812	84.13440704345703	229.2038421630859	1485.824462890625	102.8856735229492	270.9632568359375	1354.411376953125	31.74153327941895	280.6666259765625	1136.2822265625	30.21517944335938	193.9929809570312	1124.378784179688	48.27007293701172	327.7318115234375	896.0667114257812	116.3005065917969	294.4071655273438	882.155517578125	30.14544486999512	295.5509643554688	1026.692626953125	24.26738929748535	302.3580932617188	710.9718017578125	133.1531982421875	300.4429626464844	810.6368408203125	43.52185821533203	342.2426452636719	814.489013671875	103.8566665649414	-74.55551910400391	1492.235229492188	297.2720642089844	-140.4080963134766	1423.048461914062	318.1140747070312	-181.6861114501953	1130.890991210938	349.6734313964844	-98.97071075439453	1125.812255859375	295.61474609375	-54.24688339233398	942.8554077148438	492.1181030273438	-128.2371673583984	904.3566284179688	457.8769226074219	-173.3609771728516	1062.076416015625	390.791015625	10.92480754852295	767.87158203125	524.3374633789062	-30.80516815185547	860.1858520507812	535.9420776367188	-95.58983612060547	832.589111328125	495.8521118164062	3.835433959960938	1673.050903320312	224.4810791015625	191.070068359375	1734.870361328125	314.093505859375	78.47654724121094	1725.619262695312	374.4811096191406	119.4809799194336	1690.11181640625	154.8599243164062	251.1740264892578	997.8895263671875	120.6225738525391	-29.49688529968262	1003.267944335938	365.2020568847656	58.13411331176758	1037.395263671875	404.5074768066406	267.8268432617188	1042.751098632812	255.3764343261719	362.7934875488281	510.6859130859375	238.2038269042969	345.8777770996094	655.350830078125	204.5297546386719	150.4248352050781	164.7537078857422	-32.84693908691406	273.8393859863281	339.4142761230469	103.5580139160156	256.24755859375	63.53602981567383	121.3786468505859	192.377685546875	82.15739440917969	121.5323181152344	234.9251708984375	101.2783050537109	4.4126296043396	73.97654724121094	197.6979827880859	-17.07060050964355	74.94612121582031	505.4778747558594	355.6396179199219	25.05415344238281	772.2564697265625	416.0811462402344	92.47293853759766	33.41962814331055	233.4102478027344	109.1504440307617	387.0157165527344	345.371337890625	217.0658416748047	43.10165405273438	422.6569519042969	235.4318237304688	44.41257858276367	354.5057678222656	107.1050338745117	36.69791030883789	350.9191284179688	135.7852478027344	32.28786087036133	160.7269592285156	
318	3.17	-9.27730655670166	1046.076293945312	171.6364593505859	95.94092559814453	1050.854736328125	106.4803161621094	38.96356964111328	1085.097412109375	141.3305358886719	171.4865264892578	1309.075927734375	357.953857421875	13.06354999542236	1240.754150390625	106.554573059082	45.69948959350586	1512.79443359375	151.0692901611328	157.5358123779297	1421.68896484375	326.203857421875	-73.98391723632812	1332.165771484375	157.4241027832031	126.8659591674805	1491.932739257812	91.20452880859375	234.7926635742188	1485.646728515625	110.9552536010742	277.0872802734375	1354.414672851562	39.87382125854492	287.0713806152344	1136.320434570312	37.61510848999023	200.3056182861328	1124.197143554688	54.7942008972168	334.4020690917969	896.849853515625	125.6154556274414	302.4302673339844	882.0733642578125	39.11991882324219	302.6927490234375	1026.859619140625	32.13511657714844	310.613525390625	711.8359985351562	143.803955078125	308.9438171386719	810.6796875	53.18440246582031	349.8025512695312	815.4407958984375	114.0525360107422	-70.66337585449219	1492.3310546875	302.33935546875	-136.8739929199219	1423.429931640625	323.0846252441406	-177.2734527587891	1130.96826171875	356.1939697265625	-94.75083923339844	1125.976318359375	301.8767700195312	-47.78502655029297	945.270263671875	499.7974853515625	-121.4410095214844	905.7131958007812	466.0998840332031	-168.2998962402344	1062.410888671875	397.7979736328125	19.55220413208008	771.5109252929688	533.62646484375	-23.36017608642578	863.396728515625	544.3685913085938	-87.83592987060547	834.6051025390625	504.7272644042969	8.821789741516113	1673.56298828125	230.5985870361328	196.0053405761719	1734.6962890625	321.1271362304688	83.122314453125	1726.013671875	380.9822082519531	125.0035934448242	1690.045288085938	161.604736328125	257.3791198730469	998.5995483398438	129.7648468017578	-27.02249336242676	1002.868408203125	370.1399841308594	60.14943313598633	1037.277465820312	410.8962707519531	271.7328491210938	1043.280883789062	264.7441711425781	370.7041015625	513.2039184570312	255.4339141845703	353.4896545410156	657.2755126953125	219.1020202636719	172.2023162841797	155.2726593017578	-10.3425350189209	288.2256164550781	336.6866455078125	123.2115783691406	280.7991943359375	62.71460342407227	147.5586547851562	216.0818939208984	78.53754425048828	146.6267242431641	258.814208984375	96.43729400634766	29.485107421875	94.3453369140625	185.3305053710938	3.867236375808716	75.29822540283203	505.0443115234375	357.420654296875	26.47981834411621	771.49609375	420.0481567382812	92.60215759277344	33.51963424682617	233.387939453125	109.5954666137695	386.6985778808594	346.778564453125	217.2270812988281	42.96023941040039	422.7109375	235.4420013427734	44.28606033325195	354.5647277832031	107.1011581420898	36.67701721191406	350.9451293945312	136.480224609375	32.12179565429688	160.9535064697266	
319	3.18	-4.155887126922607	1046.195068359375	176.9439086914062	101.9394683837891	1050.89794921875	113.2056427001953	44.35713195800781	1085.197143554688	147.4001007080078	174.5724334716797	1309.074951171875	365.6001586914062	18.67251396179199	1240.73193359375	112.6936721801758	51.00759124755859	1512.7685546875	157.3971710205078	161.1102142333984	1421.678344726562	333.6155700683594	-68.88619232177734	1332.261474609375	162.7498321533203	132.6210174560547	1491.714111328125	98.25772857666016	240.3623962402344	1485.349731445312	119.0379486083984	283.279541015625	1354.299072265625	48.11789703369141	293.8466186523438	1136.279174804688	45.23176574707031	206.9503936767578	1123.869506835938	61.25674438476562	341.123779296875	897.5283813476562	135.23388671875	310.9823303222656	881.980224609375	48.24997711181641	310.2539367675781	1026.936279296875	40.29508209228516	318.7538146972656	712.5966186523438	154.4156951904297	317.8887634277344	810.7133178710938	62.95516586303711	357.4462280273438	816.2861328125	124.5549163818359	-66.79134368896484	1492.310302734375	307.3340454101562	-133.3406372070312	1423.694213867188	328.0315246582031	-172.8345184326172	1130.951293945312	362.6278076171875	-90.53609466552734	1126.02783203125	308.0545349121094	-41.49871444702148	947.429931640625	507.2901916503906	-114.8259658813477	906.9053955078125	474.0916137695312	-163.2672882080078	1062.64453125	404.6797485351562	27.85774230957031	774.8615112304688	542.6158447265625	-16.18249702453613	866.3101196289062	552.549072265625	-80.35862731933594	836.4170532226562	513.3140869140625	13.81179523468018	1673.953002929688	236.677978515625	200.9098205566406	1734.427001953125	328.1313171386719	87.74470520019531	1726.305419921875	387.4464721679688	130.5196380615234	1689.865478515625	168.3197326660156	263.4584350585938	999.1801147460938	138.8490905761719	-24.49971008300781	1002.415893554688	375.0184631347656	62.17347717285156	1037.076171875	417.1539916992188	275.6074829101562	1043.698852539062	273.9817810058594	378.0611267089844	515.64599609375	272.4376525878906	360.6258544921875	659.0851440429688	233.4936065673828	194.1425476074219	145.6320495605469	12.95516872406006	302.4328918457031	333.8014526367188	143.1032867431641	304.8349914550781	62.08527374267578	174.5941009521484	239.4904479980469	75.19490051269531	172.4823608398438	282.539794921875	91.55262756347656	55.47028732299805	114.9938507080078	172.5820770263672	25.61356353759766	75.79230499267578	504.6261901855469	359.1772155761719	27.97987937927246	770.7177124023438	423.8802795410156	92.71966552734375	33.65270233154297	233.3484954833984	110.2195816040039	386.35888671875	348.2506408691406	217.4190063476562	42.81699752807617	422.7723999023438	235.4850006103516	44.11563873291016	354.5984191894531	107.1582107543945	36.67951202392578	350.9769897460938	136.9166870117188	32.08698654174805	161.0954742431641	
